<?xml version="1.0" encoding="UTF-8"?>
<svg width="118px" height="35px" viewBox="0 0 118 35" version="1.1" xmlns="http://www.w3.org/2000/svg" xmlns:xlink="http://www.w3.org/1999/xlink">
    <!-- Generator: Sketch 53.2 (72643) - https://sketchapp.com -->
    <title>logo</title>
    <desc>Created with Sketch.</desc>
    <defs>
        <linearGradient x1="50%" y1="0%" x2="50%" y2="100%" id="linearGradient-1">
            <stop stop-color="#DF3D3D" offset="0%"></stop>
            <stop stop-color="#7D0E0E" offset="100%"></stop>
        </linearGradient>
        <linearGradient x1="50%" y1="0%" x2="50%" y2="100%" id="linearGradient-2">
            <stop stop-color="#D83434" offset="0%"></stop>
            <stop stop-color="#4E0505" offset="100%"></stop>
        </linearGradient>
    </defs>
    <g id="Page-1" stroke="none" stroke-width="1" fill="none" fill-rule="evenodd">
        <g id="logo">
            <g id="Group">
                <rect id="Rectangle" fill="url(#linearGradient-1)" x="13" y="0" width="10" height="35"></rect>
                <rect id="Rectangle" fill="#DC4236" x="0" y="13" width="35" height="10"></rect>
                <rect id="Rectangle" fill="url(#linearGradient-2)" x="13" y="13" width="10" height="10"></rect>
            </g>
            <path d="M47.448,10.152 L51.552,10.152 L51.552,27 L47.448,27 L47.448,20.016 L40.944,20.016 L40.944,27 L36.84,27 L36.84,10.152 L40.944,10.152 L40.944,16.896 L47.448,16.896 L47.448,10.152 Z M63.192,22.8 C63.7360027,22.2239971 64.008,21.3920054 64.008,20.304 C64.008,19.2159946 63.7280028,18.3880028 63.168,17.82 C62.6079972,17.2519972 61.9440038,16.968 61.176,16.968 C60.4079962,16.968 59.7480028,17.2519972 59.196,17.82 C58.6439972,18.3880028 58.368,19.2159946 58.368,20.304 C58.368,21.3920054 58.6519972,22.2239971 59.22,22.8 C59.7880028,23.3760029 60.4559962,23.664 61.224,23.664 C61.9920038,23.664 62.6479973,23.3760029 63.192,22.8 Z M56.208,25.272 C54.8639933,24.0079937 54.192,22.3440103 54.192,20.28 C54.192,18.2159897 54.8639933,16.5640062 56.208,15.324 C57.5520067,14.0839938 59.2159901,13.464 61.2,13.464 C63.1840099,13.464 64.8439933,14.0839938 66.18,15.324 C67.5160067,16.5640062 68.184,18.2159897 68.184,20.28 C68.184,22.3440103 67.5200066,24.0079937 66.192,25.272 C64.8639934,26.5360063 63.2080099,27.168 61.224,27.168 C59.2399901,27.168 57.5680068,26.5360063 56.208,25.272 Z M69.912,17.64 C69.912,16.4559941 70.415995,15.464004 71.424,14.664 C72.432005,13.863996 73.7959914,13.464 75.516,13.464 C77.2360086,13.464 78.6239947,13.8559961 79.68,14.64 C80.7360053,15.4240039 81.2959997,16.4959932 81.36,17.856 L77.16,17.856 C77.1119998,17.3919977 76.9520014,17.0760008 76.68,16.908 C76.4079986,16.7399992 76.0000027,16.656 75.456,16.656 C74.3839946,16.656 73.848,16.9839967 73.848,17.64 C73.848,18.232003 74.5039934,18.6399989 75.816,18.864 C77.1440066,19.0880011 78.3519946,19.4319977 79.44,19.896 C80.0000028,20.1200011 80.4679981,20.4919974 80.844,21.012 C81.2200019,21.5320026 81.408,22.1679962 81.408,22.92 C81.408,24.1680062 80.8720054,25.187996 79.8,25.98 C78.7279946,26.772004 77.3760082,27.168 75.744,27.168 C74.1119918,27.168 72.7520054,26.7960037 71.664,26.052 C70.5759946,25.3079963 69.9840005,24.2080073 69.888,22.752 L74.088,22.752 C74.2000006,23.5680041 74.7759948,23.976 75.816,23.976 C76.2960024,23.976 76.6919984,23.8640011 77.004,23.64 C77.3160016,23.4159989 77.472,23.1280018 77.472,22.776 C77.472,22.4239982 77.2120026,22.144001 76.692,21.936 C76.1719974,21.727999 75.5440037,21.5520007 74.808,21.408 C74.0719963,21.2639993 73.3320037,21.0840011 72.588,20.868 C71.8439963,20.6519989 71.2120026,20.2760027 70.692,19.74 C70.1719974,19.2039973 69.912,18.5040043 69.912,17.64 Z M88.248,23.88 L90.072,23.88 C91.6400078,23.88 92.8719955,23.4000048 93.768,22.44 C94.6640045,21.4799952 95.112,20.1920081 95.112,18.576 C95.112,16.9599919 94.6640045,15.6720048 93.768,14.712 C92.8719955,13.7519952 91.6400078,13.272 90.072,13.272 L88.248,13.272 L88.248,23.88 Z M90.072,10.152 C92.7600134,10.152 94.9679914,10.9319922 96.696,12.492 C98.4240086,14.0520078 99.288,16.0759876 99.288,18.564 C99.288,21.0520124 98.4240086,23.0799922 96.696,24.648 C94.9679914,26.2160078 92.7600134,27 90.072,27 L84.144,27 L84.144,10.152 L90.072,10.152 Z M105.624,12.096 C105.159998,12.5600023 104.592003,12.792 103.92,12.792 C103.247997,12.792 102.680002,12.5600023 102.216,12.096 C101.751998,11.6319977 101.52,11.0600034 101.52,10.38 C101.52,9.6999966 101.751998,9.12800232 102.216,8.664 C102.680002,8.19999768 103.247997,7.968 103.92,7.968 C104.592003,7.968 105.159998,8.19999768 105.624,8.664 C106.088002,9.12800232 106.32,9.6999966 106.32,10.38 C106.32,11.0600034 106.088002,11.6319977 105.624,12.096 Z M101.88,27 L101.88,13.608 L105.984,13.608 L105.984,27 L101.88,27 Z M113.688,13.608 L113.688,16.104 C114.648005,14.3439912 115.927992,13.464 117.528,13.464 L117.528,17.64 L116.52,17.64 C115.575995,17.64 114.868002,17.8639978 114.396,18.312 C113.923998,18.7600022 113.688,19.5439944 113.688,20.664 L113.688,27 L109.584,27 L109.584,13.608 L113.688,13.608 Z" id="HosDir" fill="#F96D5F" fill-rule="nonzero"></path>
        </g>
    </g>
</svg>